<?xml version="1.0" encoding="utf-8"?>
<!-- Generator: Adobe Illustrator 15.1.0, SVG Export Plug-In . SVG Version: 6.00 Build 0)  -->
<!DOCTYPE svg PUBLIC "-//W3C//DTD SVG 1.1//EN" "http://www.w3.org/Graphics/SVG/1.1/DTD/svg11.dtd">
<svg version="1.1" xmlns="http://www.w3.org/2000/svg" xmlns:xlink="http://www.w3.org/1999/xlink" x="0px" y="0px" width="67px"
	 height="67px" viewBox="0 0 67 67" enable-background="new 0 0 67 67" xml:space="preserve">
<g id="Layer_2">
</g>
<g id="Layer_1">
	<g id="rhXAI5.tif">
		<g>
			<path fill-rule="evenodd" clip-rule="evenodd" d="M27.53,4.719c0.477,0,0.952,0,1.429,0c4.912,0.196,8.776,1.659,11.983,3.697
				c3.211,2.039,5.766,4.696,7.734,7.951c1.959,3.237,3.311,7.263,3.311,12.373c0,5.051-1.562,8.876-3.504,12.155
				c0.521,0.645,1.152,1.201,1.738,1.789c3.792,3.791,7.595,7.593,11.432,11.431c0.358,0.357,0.785,0.686,0.847,1.185
				c0,0.136,0,0.273,0,0.41c-0.341,1.774-1.604,2.837-2.684,3.915c-1.072,1.075-2.135,2.333-3.915,2.658c-0.127,0-0.257,0-0.387,0
				c-0.569-0.103-0.884-0.545-1.306-0.966c-4.31-4.312-8.653-8.709-12.977-12.953c-3.246,2.089-7.003,3.644-12.034,3.866
				c-5.222,0.229-9.455-1.242-12.759-3.142c-3.337-1.917-6.073-4.537-8.168-7.733C6.155,38.13,4.76,34.185,4.5,29.246
				c0-0.514,0-1.029,0-1.546c0.077-1.83,0.336-3.516,0.726-5.075c1.134-4.541,3.418-8.127,6.26-10.97
				C15.31,7.83,20.4,5.096,27.53,4.719z M25.599,12.838c-1.699,0.279-3.229,0.802-4.495,1.45c-3.515,1.799-6.071,4.52-7.588,8.266
				c-0.754,1.856-1.25,4.17-1.114,6.766c0.26,4.842,2.398,8.326,5.052,10.802c2.582,2.409,6.541,4.463,11.601,4.205
				c2.439-0.124,4.525-0.759,6.284-1.643c3.488-1.755,6.084-4.531,7.611-8.24c0.771-1.873,1.262-4.156,1.136-6.743
				c-0.237-4.869-2.389-8.323-5.026-10.826c-2.596-2.464-6.478-4.474-11.625-4.229C26.84,12.673,26.216,12.737,25.599,12.838z"/>
			<path fill-rule="evenodd" clip-rule="evenodd" fill="#FFFFFF" d="M62.5,55.708c0,2.191,0,4.382,0,6.573c-2.2,0-4.398,0-6.599,0
				c1.78-0.325,2.843-1.583,3.915-2.658C60.896,58.546,62.159,57.483,62.5,55.708z"/>
		</g>
	</g>
</g>
</svg>
