<?xml version="1.0" encoding="utf-8"?>
<!-- Generator: Adobe Illustrator 15.1.0, SVG Export Plug-In . SVG Version: 6.00 Build 0)  -->
<!DOCTYPE svg PUBLIC "-//W3C//DTD SVG 1.1//EN" "http://www.w3.org/Graphics/SVG/1.1/DTD/svg11.dtd">
<svg version="1.1" id="Layer_1" xmlns="http://www.w3.org/2000/svg" xmlns:xlink="http://www.w3.org/1999/xlink" x="0px" y="0px"
	 width="67px" height="67px" viewBox="0 -0.5 67 67" enable-background="new 0 -0.5 67 67" xml:space="preserve">
<g id="zgv4f5.tif">
	<g>
		<path fill="#FFFFFF" d="M31.801,4C15.708,6.108,6.608,15.208,4.5,31.301c0-9.1,0-18.201,0-27.301C13.6,4,22.701,4,31.801,4z"/>
		<path d="M31.801,4c1.133,0,2.266,0,3.398,0C51.292,6.108,60.393,15.208,62.5,31.301c0,1.133,0,2.266,0,3.398
			C60.393,50.792,51.292,59.893,35.199,62c-1.133,0-2.266,0-3.398,0C15.708,59.893,6.608,50.792,4.5,34.699c0-1.133,0-2.266,0-3.398
			C6.608,15.208,15.708,6.108,31.801,4z M58.082,22.465C54.391,13.716,45.562,6.266,33.5,6.266c-3.261,0-6.373,0.662-8.949,1.586
			c-2.449,0.879-4.639,2.024-6.684,3.512C10.647,16.616,4.373,27.44,7.672,39.91c1.36,5.142,4.135,9.416,7.816,12.574
			c4.023-3.742,14.294-2.373,12.461-12.008c-1.269-1.451-2.279-3.16-2.605-5.552c-1.467-0.882-2.314-2.266-2.152-4.191
			c0.073-0.866,0.846-1.408,0.906-2.039c0.084-0.889-0.553-2.001-0.68-2.832c-0.533-3.494-0.44-6.708,1.133-9.289
			c1.734-2.846,7.803-5.396,12.461-3.398c0.826,0.354,1.053,1.022,1.926,1.473c0.662,0.342,1.479,0.299,2.152,0.68
			c3.648,2.063,3.48,8.649,1.812,13.367c1.035,1.215,1.104,3.239,0.34,4.758c-0.354,0.7-1.174,0.813-1.586,1.586
			c-0.414,0.774-0.428,2.052-0.906,3.06c-0.439,0.926-1.402,1.702-1.586,2.491c-0.359,1.545,0.259,2.808,0,4.646
			c2.41,4.16,8.688,4.453,12.461,7.25C58.836,46.963,62.698,33.401,58.082,22.465z"/>
		<path fill="#FFFFFF" d="M35.199,4C44.299,4,53.4,4,62.5,4c0,9.1,0,18.201,0,27.301C60.393,15.208,51.292,6.108,35.199,4z"/>
		<path fill="#FFFFFF" d="M51.625,52.484c-3.773-2.797-10.051-3.09-12.461-7.25c0.259-1.838-0.359-3.1,0-4.646
			c0.184-0.789,1.146-1.565,1.586-2.491c0.479-1.007,0.492-2.285,0.906-3.06c0.412-0.771,1.232-0.886,1.586-1.586
			c0.765-1.519,0.695-3.542-0.34-4.758c1.666-4.718,1.836-11.304-1.812-13.367c-0.673-0.381-1.49-0.338-2.152-0.68
			c-0.873-0.451-1.1-1.119-1.926-1.473c-4.658-1.998-10.727,0.553-12.461,3.398c-1.573,2.581-1.666,5.795-1.133,9.289
			c0.126,0.831,0.764,1.943,0.68,2.832c-0.06,0.631-0.833,1.173-0.906,2.039c-0.162,1.926,0.686,3.31,2.152,4.191
			c0.327,2.392,1.336,4.101,2.605,5.552c1.833,9.635-8.438,8.266-12.461,12.008c-3.682-3.159-6.456-7.433-7.816-12.574
			c-3.299-12.47,2.975-23.294,10.195-28.547c2.044-1.487,4.234-2.633,6.684-3.512c2.577-0.924,5.688-1.586,8.949-1.586
			c12.062,0,20.891,7.45,24.582,16.199C62.698,33.401,58.836,46.963,51.625,52.484z"/>
		<path fill="#FFFFFF" d="M4.5,34.699C6.608,50.792,15.708,59.893,31.801,62c-9.1,0-18.201,0-27.301,0
			C4.5,52.9,4.5,43.799,4.5,34.699z"/>
		<path fill="#FFFFFF" d="M62.5,34.699c0,9.1,0,18.201,0,27.301c-9.1,0-18.201,0-27.301,0C51.292,59.893,60.393,50.792,62.5,34.699z
			"/>
	</g>
</g>
</svg>
